<svg xmlns="http://www.w3.org/2000/svg" viewBox="0 0 25 118"><title>Ресурс 1</title><g id="Слой_2" data-name="Слой 2"><g id="Слой_1-2" data-name="Слой 1"><path d="M24,116H16.5c-4.4,0-4.5-4.5-4.5-5V78c0-.3,0-8.4-3.2-12.6A42.66,42.66,0,0,0,2.6,59a42.66,42.66,0,0,0,6.2-6.4C12,48.4,12,40.3,12,40V7c0-.5.1-5,4.5-5H24a.94.94,0,0,0,1-1,.94.94,0,0,0-1-1H16.5C12,0,10,3.6,10,7V40c0,.1,0,7.7-2.8,11.4A42,42,0,0,1,.4,58.2l-.1.1a.1.1,0,0,0-.1.1v.1c0,.1-.1.1-.1.2s0,.1-.1.2v.4c0,.1,0,.1.1.2s0,.1.1.2v.1a.1.1,0,0,1,.1.1l.1.1a42,42,0,0,1,6.8,6.8C10,70.3,10,77.9,10,78v33c0,3.4,2,7,6.5,7H24a1,1,0,0,0,0-2Z"/></g></g></svg>